<?xml version="1.0" standalone="no"?>
<!DOCTYPE svg PUBLIC "-//W3C//DTD SVG 20010904//EN"
 "http://www.w3.org/TR/2001/REC-SVG-20010904/DTD/svg10.dtd">
<svg version="1.0" xmlns="http://www.w3.org/2000/svg"
 width="500.000000pt" height="500.000000pt" viewBox="0 0 500.000000 500.000000"
 preserveAspectRatio="xMidYMid meet">

<g transform="translate(0.000000,500.000000) scale(0.100000,-0.100000)"
fill="#000000" stroke="none">
<path d="M2204 2768 c-79 -8 -131 -35 -181 -92 -50 -57 -68 -117 -67 -222 1
-129 54 -221 154 -268 38 -17 62 -21 150 -19 58 0 128 7 155 15 l50 13 3 163
2 162 -130 0 -131 0 3 -62 3 -63 53 -3 52 -3 0 -43 c0 -43 -1 -44 -37 -48
-103 -13 -163 50 -163 167 0 65 18 111 56 144 30 27 42 31 93 31 32 0 77 -6
99 -14 l40 -15 25 62 25 62 -31 13 c-43 19 -151 29 -223 20z"/>
<path d="M2590 2470 l0 -302 163 4 c151 3 165 5 206 28 57 32 82 67 88 123 8
66 -11 113 -57 139 l-38 22 30 18 c56 35 75 126 38 186 -36 59 -91 75 -272 80
l-158 5 0 -303z m268 158 c19 -19 15 -66 -7 -78 -11 -5 -38 -10 -60 -10 l-41
0 0 50 0 50 48 0 c26 0 53 -5 60 -12z m2 -226 c26 -21 30 -66 8 -89 -9 -8 -36
-15 -64 -16 l-49 -2 -3 63 -3 62 44 0 c28 0 53 -7 67 -18z"/>
</g>
</svg>
